<?xml version="1.0" standalone="no"?><!DOCTYPE svg PUBLIC "-//W3C//DTD SVG 1.1//EN" "http://www.w3.org/Graphics/SVG/1.1/DTD/svg11.dtd"><svg t="1716951018929" class="icon" viewBox="0 0 1024 1024" version="1.1" xmlns="http://www.w3.org/2000/svg" p-id="4312" xmlns:xlink="http://www.w3.org/1999/xlink" width="200" height="200"><path d="M872.642847 516.212908l-52.661353-38.047827a42.919002 42.919002 0 0 0-25.409102-8.030856 38.047827 38.047827 0 0 0-36.336333 22.249421l-246.191823 377.845205-256.329134-368.629468a41.207508 41.207508 0 0 0-36.20468-22.381075 35.80972 35.80972 0 0 0-15.930059 3.686295l-42.787349 19.08974A36.073026 36.073026 0 0 0 132.355884 539.778863v359.413731c0 80.703523 28.832091 124.807406 109.535613 124.807406h527.271792c80.703523 0 122.569298-44.103883 122.569298-124.807406V554.129082a58.059141 58.059141 0 0 0-19.08974-37.916174zM833.936753 899.192594c0 49.501671-16.983286 67.011571-64.773464 67.011572h-526.613525c-32.255078 0-51.739779 0-51.739779-67.011572V552.154281l23.039342-10.268963 250.668038 361.388531a57.795834 57.795834 0 0 0 95.843661-1.448187l239.740808-366.917974 33.834919 24.487529z" p-id="4313"></path><path d="M709.129347 484.616097a55.821034 55.821034 0 0 0-53.582926-34.756493A118.488043 118.488043 0 0 0 593.142718 471.450759l-81.098482 48.975057-81.493444-49.370018a118.488043 118.488043 0 0 0-62.403702-21.986114 55.557727 55.557727 0 0 0-53.582926 34.888146l-1.579841 157.984057c0.658267 33.308305 20.537927 53.977886 52.661352 53.977887 45.025456 0 114.011828-45.55207 146.530214-68.986372 32.650039 23.302648 101.63641 68.459758 146.39856 68.459758 31.596812 0 51.608125-20.669581 52.661352-54.241193V493.30522zM486.766786 583.224479c-38.442787 28.173824-95.843662 62.535356-121.252764 62.535356l-0.78992 1.579841a13.165338 13.165338 0 0 1-0.78992-5.266135V500.282849c3.817948-1.843147 13.165338-4.081255 40.549241 13.165338l82.283363 49.896632z m173.387504 57.927488v3.949602H658.969409c-25.277449 0-82.678323-34.098226-121.252764-62.008743v-18.563127L619.473395 514.764721c27.383903-17.246593 36.467987-14.613525 40.154281-13.165338z" p-id="4314"></path><path d="M512.044236 46.078683A182.60324 182.60324 0 1 1 329.835956 228.55027 182.734893 182.734893 0 0 1 512.044236 46.078683m0-46.078683A228.681923 228.681923 0 1 0 740.594506 228.55027 228.681923 228.681923 0 0 0 512.044236 0z" p-id="4315"></path></svg>